<svg xmlns="http://www.w3.org/2000/svg" width="16" height="16" viewBox="0 0 15 15" fill="none">
<path d="M13.471 14.29L8.49874 9.31769C8.1029 9.64451 7.6477 9.90028 7.13311 10.085C6.61853 10.2697 6.08618 10.3621 5.53608 10.3621C4.18299 10.3621 3.03783 9.89359 2.1006 8.9566C1.16338 8.01961 0.694763 6.87474 0.694763 5.52201C0.694763 4.16926 1.16326 3.02398 2.10025 2.08616C3.03724 1.14835 4.18211 0.679443 5.53485 0.679443C6.88759 0.679443 8.03287 1.14806 8.97069 2.08529C9.90851 3.02251 10.3774 4.16767 10.3774 5.52076C10.3774 6.08609 10.2825 6.62605 10.0927 7.14063C9.90292 7.65521 9.64968 8.10281 9.33301 8.48342L14.3053 13.4557L13.471 14.29ZM5.53608 9.17462C6.55612 9.17462 7.4201 8.82065 8.12804 8.11272C8.83597 7.40478 9.18994 6.5408 9.18994 5.52076C9.18994 4.50073 8.83597 3.63674 8.12804 2.92881C7.4201 2.22087 6.55612 1.8669 5.53608 1.8669C4.51605 1.8669 3.65206 2.22087 2.94413 2.92881C2.2362 3.63674 1.88224 4.50073 1.88224 5.52076C1.88224 6.5408 2.2362 7.40478 2.94413 8.11272C3.65206 8.82065 4.51605 9.17462 5.53608 9.17462Z" 
fill="#E4E6EB"/>
</svg>