<svg xmlns="http://www.w3.org/2000/svg" width="25" height="25" viewBox="0 0 25 25" fill="none">
  <mask id="mask0_996_1183" style="mask-type:alpha" maskUnits="userSpaceOnUse" x="0" y="0" width="25" height="25">
    <rect x="0.869629" y="0.231934" width="24" height="24" fill="#3A3B3C"/>
  </mask>
  <g mask="url(#mask0_996_1183)">
    <path d="M6.71963 17.3319C7.56963 16.6819 8.51963 16.1694 9.56963 15.7944C10.6196 15.4194 11.7196 15.2319 12.8696 15.2319C14.0196 15.2319 15.1196 15.4194 16.1696 15.7944C17.2196 16.1694 18.1696 16.6819 19.0196 17.3319C19.603 16.6486 20.0571 15.8736 20.3821 15.0069C20.7071 14.1403 20.8696 13.2153 20.8696 12.2319C20.8696 10.0153 20.0905 8.12777 18.5321 6.56943C16.9738 5.0111 15.0863 4.23193 12.8696 4.23193C10.653 4.23193 8.76546 5.0111 7.20713 6.56943C5.6488 8.12777 4.86963 10.0153 4.86963 12.2319C4.86963 13.2153 5.03213 14.1403 5.35713 15.0069C5.68213 15.8736 6.1363 16.6486 6.71963 17.3319ZM12.8696 13.2319C11.8863 13.2319 11.0571 12.8944 10.3821 12.2194C9.70713 11.5444 9.36963 10.7153 9.36963 9.73193C9.36963 8.7486 9.70713 7.91943 10.3821 7.24443C11.0571 6.56943 11.8863 6.23193 12.8696 6.23193C13.853 6.23193 14.6821 6.56943 15.3571 7.24443C16.0321 7.91943 16.3696 8.7486 16.3696 9.73193C16.3696 10.7153 16.0321 11.5444 15.3571 12.2194C14.6821 12.8944 13.853 13.2319 12.8696 13.2319ZM12.8696 22.2319C11.4863 22.2319 10.1863 21.9694 8.96963 21.4444C7.75296 20.9194 6.69463 20.2069 5.79463 19.3069C4.89463 18.4069 4.18213 17.3486 3.65713 16.1319C3.13213 14.9153 2.86963 13.6153 2.86963 12.2319C2.86963 10.8486 3.13213 9.5486 3.65713 8.33193C4.18213 7.11527 4.89463 6.05693 5.79463 5.15693C6.69463 4.25693 7.75296 3.54443 8.96963 3.01943C10.1863 2.49443 11.4863 2.23193 12.8696 2.23193C14.253 2.23193 15.553 2.49443 16.7696 3.01943C17.9863 3.54443 19.0446 4.25693 19.9446 5.15693C20.8446 6.05693 21.5571 7.11527 22.0821 8.33193C22.6071 9.5486 22.8696 10.8486 22.8696 12.2319C22.8696 13.6153 22.6071 14.9153 22.0821 16.1319C21.5571 17.3486 20.8446 18.4069 19.9446 19.3069C19.0446 20.2069 17.9863 20.9194 16.7696 21.4444C15.553 21.9694 14.253 22.2319 12.8696 22.2319Z" fill="#3A3B3C"/>
  </g>
</svg>